<svg xmlns="http://www.w3.org/2000/svg" version="1.0" width="225.000000pt" height="225.000000pt" viewBox="0 0 225.000000 225.000000" preserveAspectRatio="xMidYMid meet">

<g transform="translate(0.000000,225.000000) scale(0.100000,-0.100000)" fill="#FFF" stroke="none">
<path d="M1048 2153 c22 -78 25 -108 26 -258 0 -159 -1 -175 -27 -250 -15 -44 -40 -103 -57 -132 -35 -61 -150 -187 -160 -176 -4 4 -14 29 -24 55 -35 94 -154 196 -279 237 -65 22 -204 47 -212 39 -3 -2 5 -36 16 -74 11 -38 23 -114 26 -169 7 -128 -13 -211 -96 -402 -85 -197 -105 -272 -105 -413 -1 -134 20 -215 81 -320 36 -61 182 -220 203 -220 5 0 12 12 15 28 16 71 52 155 105 242 91 149 114 247 88 373 -8 37 -13 67 -11 67 3 0 24 -13 47 -29 56 -39 140 -131 177 -195 23 -40 28 -44 22 -21 -13 55 -7 237 10 302 37 142 135 271 254 336 l51 27 -13 -43 c-57 -189 -3 -394 143 -549 l67 -71 7 68 c7 75 46 165 99 228 27 33 145 105 155 95 2 -2 -4 -26 -12 -53 -8 -28 -15 -86 -15 -130 0 -85 10 -127 79 -325 59 -171 63 -261 16 -382 -19 -52 -6 -50 87 12 157 103 256 245 281 404 24 155 -25 349 -130 513 -88 139 -121 206 -142 289 -26 100 -26 227 -1 322 l18 71 -56 -38 c-108 -74 -221 -201 -287 -323 l-34 -63 8 60 c4 33 7 125 6 205 0 116 -5 163 -23 235 -41 159 -112 282 -222 383 -38 34 -185 132 -199 132 -4 0 4 -39 18 -87z"/>
</g>
</svg>