<svg xmlns="http://www.w3.org/2000/svg" version="1.0" width="512.000000pt" height="512.000000pt"
    viewBox="0 0 512.000000 512.000000" preserveAspectRatio="xMidYMid meet">
    <script xmlns="" async="false" type="text/javascript"
        src="chrome-extension://fnjhmkhhmkbjkkabndcnnogagogbneec/in-page.js" />

    <g transform="translate(0.000000,512.000000) scale(0.100000,-0.100000)" fill="#f9f9f9" stroke="none">
        <path
            d="M2370 5113 c-371 -35 -653 -114 -961 -269 -406 -203 -782 -548 -1029 -944 -179 -286 -309 -655 -362 -1025 -17 -118 -17 -512 0 -630 42 -295 120 -553 242 -800 137 -280 272 -468 494 -691 221 -220 412 -357 681 -489 188 -92 309 -137 500 -185 500 -126 1002 -102 1490 71 150 53 408 183 540 271 560 374 952 942 1095 1588 33 150 50 291 57 465 15 426 -73 832 -263 1214 -124 250 -263 447 -458 648 -214 222 -430 379 -711 518 -296 146 -572 225 -900 255 -102 9 -333 11 -415 3z m545 -342 c634 -107 1171 -457 1523 -995 170 -258 286 -563 339 -891 24 -153 24 -497 0 -650 -108 -668 -474 -1222 -1042 -1580 -243 -153 -537 -261 -850 -312 -154 -24 -497 -24 -650 1 -497 81 -907 288 -1256 636 -345 343 -555 758 -636 1255 -24 153 -24 497 0 650 105 647 447 1183 983 1541 306 205 675 333 1054 368 108 10 418 -4 535 -23z" />
        <path
            d="M1675 3530 c-50 -20 -95 -90 -95 -145 0 -64 31 -101 393 -463 l362 -363 -369 -367 c-203 -202 -373 -379 -378 -392 -14 -37 -4 -123 18 -153 24 -34 90 -67 133 -67 17 0 46 7 64 16 18 9 195 179 395 377 l363 362 367 -369 c202 -203 379 -373 392 -378 37 -14 123 -4 153 18 34 24 67 90 67 133 0 17 -7 46 -16 64 -9 18 -179 195 -377 395 l-362 363 369 367 c203 202 373 379 378 392 14 37 4 123 -18 153 -24 34 -90 67 -133 67 -17 0 -46 -7 -64 -16 -18 -9 -195 -179 -395 -377 l-363 -362 -367 369 c-203 203 -377 373 -388 377 -26 10 -104 10 -129 -1z" />
    </g>
</svg>