<svg xmlns="http://www.w3.org/2000/svg" id="Camada_1" data-name="Camada 1" viewBox="0 0 435 420"><defs><style>.cls-1{fill:#fff;}</style></defs><path class="cls-1" d="M217.32,414.12q-76.84,0-153.69,0c-34.61,0-60-25.08-60.09-59.6q-.1-96.06,0-192.11c0-22.71,10-40.08,29.47-51.54C92.76,75.67,152.66,40.75,212.44,5.6c3.42-2,6-2.17,9.49-.1C281.84,40.75,341.9,75.74,401.78,111c19,11.17,28.93,28.3,29,50.28q.42,98.3.08,196.6c-.05,29.8-26.45,56.07-56.39,56.15-52.4.14-104.79,0-157.18,0Zm-.45-25.25q76.85,0,153.68,0c22.14,0,35.19-13,35.19-35q0-76.35-.07-152.69c0-1.89,1-4.44-1-5.54-1.69-1-3.29,1.06-4.8,1.94Q310.76,249.73,221.7,302c-3.09,1.81-5.58,2-8.73.1q-62.13-36.55-124.36-72.93c-18.36-10.76-36.75-21.48-55.07-32.31-3.36-2-5.22-2.14-4.82,2.54.06.66,0,1.33,0,2V353.58c0,22.39,13,35.28,35.45,35.28ZM30,153.53c.46,1.42.86,3,1.49,4.56a32.54,32.54,0,0,0,14.33,16q82.89,48.39,165.63,97.08c4.38,2.58,7.58,2.48,11.8,0Q275,240.61,326.88,210.34q29.91-17.52,59.86-35c5.65-3.3,10.68-7.19,14.38-12.79s3.76-11,.41-16.78-8.13-9.94-13.85-13.27q-31.71-18.4-63.3-37Q272.94,65.48,221.55,35.32c-3.12-1.84-5.47-1.85-8.6,0Q167.44,62.19,121.76,88.8c-25.53,15-51.09,29.86-76.55,45C37.69,138.21,32.15,144.46,30,153.53Z"/></svg>