<svg xmlns="http://www.w3.org/2000/svg" width="170" height="28" viewBox="0 0 170 28" fill="none">
<path fill-rule="evenodd" clip-rule="evenodd" d="M23.8 14.0992C23.8 20.396 18.6948 25.4992 12.4 25.4992C6.10125 25.4992 1 20.396 1 14.0992C1 7.80245 6.10125 2.69922 12.4 2.69922C18.6948 2.69922 23.8 7.80245 23.8 14.0992V14.0992Z" stroke="white" stroke-width="2" stroke-linecap="round" stroke-linejoin="round"/>
<path fill-rule="evenodd" clip-rule="evenodd" d="M145.4 14.0992C145.4 20.396 150.505 25.4992 156.8 25.4992C163.099 25.4992 168.2 20.396 168.2 14.0992C168.2 7.80245 163.099 2.69922 156.8 2.69922C150.505 2.69922 145.4 7.80245 145.4 14.0992V14.0992Z" stroke="white" stroke-width="2" stroke-linecap="round" stroke-linejoin="round"/>
<path d="M23.7998 14.0996L65.5998 14.0996" stroke="white" stroke-width="2"/>
<path d="M145.4 14.0996L103.6 14.0996" stroke="white" stroke-width="2"/>
<path fill-rule="evenodd" clip-rule="evenodd" d="M104 23.619C104 25.1173 102.784 26.3333 101.286 26.3333H68.7143C67.216 26.3333 66 25.1173 66 23.619V3.71429C66 2.21419 67.216 1 68.7143 1H101.286C102.784 1 104 2.21419 104 3.71429V23.619V23.619Z" stroke="white" stroke-width="2" stroke-linecap="round" stroke-linejoin="round"/>
<path d="M103.096 1.90625L85.0005 16.3824L66.9053 1.90625" stroke="white" stroke-width="2" stroke-linecap="round" stroke-linejoin="round"/>
</svg>