<svg xmlns="http://www.w3.org/2000/svg" width="170" height="40" viewBox="0 0 170 40" fill="none">
<path d="M84.0699 1.0226C80.9018 1.17754 77.8232 2.11662 75.1146 3.75422C72.4061 5.39183 70.1537 7.67589 68.563 10.3982C66.9722 13.1205 66.0935 16.1945 66.0071 19.34C65.9206 22.4855 66.6291 25.6024 68.068 28.4067L66.0512 38.1184C66.0261 38.2391 66.0321 38.3641 66.0685 38.482C66.105 38.5998 66.1708 38.7066 66.2599 38.7925C66.349 38.8784 66.4585 38.9406 66.5782 38.9735C66.6979 39.0063 66.8241 39.0087 66.945 38.9804L76.5395 36.7251C79.1395 38.0078 82.0014 38.6823 84.9052 38.6966C87.809 38.711 90.6775 38.0649 93.2903 36.808C95.9031 35.5511 98.1908 33.7168 99.9775 31.4459C101.764 29.1751 103.003 26.5283 103.597 23.7087C104.192 20.8891 104.127 17.9717 103.408 15.1808C102.689 12.3898 101.335 9.79954 99.449 7.60886C97.5633 5.41818 95.1966 3.68542 92.5306 2.54368C89.8646 1.40193 86.9702 0.88158 84.0699 1.0226V1.0226Z" stroke="black" stroke-width="2" stroke-miterlimit="10" stroke-linecap="round" stroke-linejoin="round"/>
<path d="M93.7551 24.5691L90.1344 23.5048C89.9007 23.4363 89.6533 23.4336 89.4183 23.4971C89.1832 23.5606 88.9693 23.6879 88.7991 23.8656L87.9136 24.789C87.7313 24.98 87.4978 25.1114 87.2426 25.1666C86.9873 25.2218 86.7219 25.1982 86.4797 25.0989C84.767 24.3916 81.1645 21.1121 80.245 19.4697C80.1158 19.2376 80.0568 18.9715 80.0753 18.705C80.0939 18.4386 80.1892 18.1837 80.3493 17.9727L81.1218 16.949C81.2705 16.7521 81.3645 16.5177 81.3938 16.2706C81.4231 16.0235 81.3866 15.7729 81.2882 15.5453L79.7658 12.0182C79.6809 11.8216 79.5524 11.648 79.3904 11.5112C79.2285 11.3745 79.0376 11.2782 78.833 11.2302C78.6283 11.1822 78.4156 11.1837 78.2116 11.2347C78.0077 11.2856 77.8181 11.3846 77.6581 11.5237C76.6476 12.3989 75.4492 13.728 75.3035 15.2012C75.0466 17.7985 76.1344 21.0722 80.2476 25.0025C84.9994 29.5443 88.8054 30.1468 91.2831 29.5295C92.6887 29.1809 93.8116 27.7843 94.5201 26.6403C94.6329 26.459 94.7028 26.2532 94.7243 26.0394C94.7459 25.8256 94.7185 25.6096 94.6442 25.4085C94.5699 25.2075 94.4509 25.0269 94.2966 24.8812C94.1422 24.7354 93.9568 24.6286 93.7551 24.5691V24.5691Z" stroke="black" stroke-width="2" stroke-miterlimit="10" stroke-linecap="round" stroke-linejoin="round"/>
<path fill-rule="evenodd" clip-rule="evenodd" d="M23.8 20.9996C23.8 27.2964 18.6948 32.3996 12.4 32.3996C6.10125 32.3996 1 27.2964 1 20.9996C1 14.7028 6.10125 9.59961 12.4 9.59961C18.6948 9.59961 23.8 14.7028 23.8 20.9996V20.9996Z" stroke="black" stroke-width="2" stroke-linecap="round" stroke-linejoin="round"/>
<path fill-rule="evenodd" clip-rule="evenodd" d="M146.2 20.9996C146.2 27.2964 151.305 32.3996 157.6 32.3996C163.899 32.3996 169 27.2964 169 20.9996C169 14.7028 163.899 9.59961 157.6 9.59961C151.305 9.59961 146.2 14.7028 146.2 20.9996V20.9996Z" stroke="black" stroke-width="2" stroke-linecap="round" stroke-linejoin="round"/>
<path d="M24 21L67 21" stroke="black" stroke-width="2"/>
<path d="M145 21L104 21" stroke="black" stroke-width="2"/>
</svg>