<svg xmlns="http://www.w3.org/2000/svg" width="170" height="38" viewBox="0 0 170 38" fill="none">
<path d="M78.7353 21.5097H77.0595L70.3564 28.2128V21.5097H65.3291V1.40039H97.1689V12.2929" stroke="white" stroke-width="2" stroke-linecap="round" stroke-linejoin="round"/>
<path fill-rule="evenodd" clip-rule="evenodd" d="M83.7632 29.8867H92.98L100.521 36.5898V29.8867H103.873V16.4805H83.7632V29.8867V29.8867Z" stroke="white" stroke-width="2" stroke-linecap="round" stroke-linejoin="round"/>
<path fill-rule="evenodd" clip-rule="evenodd" d="M23.8 18.4996C23.8 24.7964 18.6948 29.8996 12.4 29.8996C6.10125 29.8996 1 24.7964 1 18.4996C1 12.2028 6.10125 7.09961 12.4 7.09961C18.6948 7.09961 23.8 12.2028 23.8 18.4996V18.4996Z" stroke="white" stroke-width="2" stroke-linecap="round" stroke-linejoin="round"/>
<path fill-rule="evenodd" clip-rule="evenodd" d="M145.4 18.4996C145.4 24.7964 150.505 29.8996 156.8 29.8996C163.099 29.8996 168.2 24.7964 168.2 18.4996C168.2 12.2028 163.099 7.09961 156.8 7.09961C150.505 7.09961 145.4 12.2028 145.4 18.4996V18.4996Z" stroke="white" stroke-width="2" stroke-linecap="round" stroke-linejoin="round"/>
<path d="M23.7998 18.5L65.5998 18.5" stroke="white" stroke-width="2"/>
<path d="M145.4 18.5L103.6 18.5" stroke="white" stroke-width="2"/>
</svg>